<?xml version="1.0" encoding="utf-8"?>
<!-- Generator: Adobe Illustrator 24.3.0, SVG Export Plug-In . SVG Version: 6.00 Build 0)  -->
<svg version="1.1" id="Layer_1" xmlns="http://www.w3.org/2000/svg" xmlns:xlink="http://www.w3.org/1999/xlink" x="0px" y="0px"
	 viewBox="0 0 510.24 283.46" style="enable-background:new 0 0 510.24 283.46;" xml:space="preserve">
<style type="text/css">
	.st0{fill:#6FCEE7;}
	.st1{fill:#35A86E;}
	.st2{fill:#03572D;}
	.st3{fill:#332821;}
	.st4{fill:#0A311B;}
	.st5{font-family:'Chasy';}
	.st9{fill:#ffffff;}
	.st6{font-size:62.7954px;}
	.st7{font-family:'Avochill';}
	.st8{font-size:19.8894px;}
</style>
<g>
	<path class="st0" d="M280.59,30.91c33.59,3.97,45.49,57.66,46.29,80.41s-6.61,81.2-42.32,94.16
		c-38.06,13.81-95.75,6.35-100.77-48.93c-5.03-55.28,30.68-48.4,38.62-89.14C228.02,38.59,250.25,27.32,280.59,30.91z"/>
	<g>
		<g>
			<path class="st1" d="M256.32,107.45c-15.68,10.34-9.05,29.94-4.96,35.2c2.98,3.83,23.8,19.51,39.31-7.58
				c15.52-27.09,16.8-58.58,15.92-64.82c-0.88-6.23-7.39-4.15-11.92-2.7c-5.29,1.7-8.94,7.8-11.47,13.67
				C280.67,87.09,273.51,96.11,256.32,107.45z"/>
			<path class="st2" d="M253.27,144.54c6.19,5.2,23.83,14.24,37.41-9.47c15.52-27.09,16.8-58.58,15.92-64.82
				c-0.33-2.34-1.45-3.51-2.97-3.98c0,0,12.42-0.48,11.02,25.34s-4.73,45.23-14.33,56.83c-9.6,11.6-26.07,6.38-33.87,3.74
				C258.64,149.55,253.27,144.54,253.27,144.54z"/>
			<path class="st2" d="M278.35,110.41c4.07,1.5,5.14,9.85-0.86,17.98s-15.01,10.3-20.55,5.14c-6.21-5.78-1.28-15.2,4.92-19.69
				C267.84,109.52,273.83,108.75,278.35,110.41z"/>
		</g>
		<g>
			<path class="st1" d="M214.85,140c0.11,0.06,0.22,0.13,0.34,0.19c0.04,0.02,0.08,0.05,0.13,0.07c0.08,0.05,0.17,0.09,0.26,0.14
				c0.05,0.03,0.1,0.05,0.15,0.08c0.08,0.04,0.17,0.09,0.25,0.13c0.05,0.03,0.11,0.06,0.17,0.08c0.08,0.04,0.17,0.08,0.25,0.13
				c0.06,0.03,0.12,0.06,0.18,0.09c0.09,0.04,0.18,0.09,0.27,0.13c0.06,0.03,0.11,0.05,0.17,0.08c0.1,0.05,0.21,0.09,0.31,0.14
				c0.05,0.02,0.1,0.05,0.15,0.07c0.31,0.14,0.64,0.27,0.97,0.4c0.06,0.02,0.11,0.04,0.17,0.07c0.11,0.04,0.23,0.09,0.34,0.13
				c0.07,0.02,0.13,0.05,0.2,0.07c0.11,0.04,0.22,0.08,0.33,0.12c0.07,0.03,0.14,0.05,0.22,0.07c0.11,0.04,0.22,0.07,0.33,0.11
				c0.07,0.02,0.15,0.05,0.22,0.07c0.11,0.04,0.23,0.07,0.34,0.11c0.07,0.02,0.14,0.04,0.22,0.07c0.12,0.04,0.25,0.07,0.38,0.11
				c0.06,0.02,0.13,0.04,0.19,0.05c0.19,0.05,0.38,0.1,0.58,0.15c0.19,0.05,0.39,0.1,0.59,0.14c0.07,0.02,0.13,0.03,0.2,0.04
				c0.13,0.03,0.27,0.06,0.4,0.09c0.08,0.02,0.16,0.03,0.24,0.05c0.13,0.02,0.25,0.05,0.38,0.07c0.08,0.01,0.17,0.03,0.25,0.04
				c0.12,0.02,0.25,0.04,0.37,0.06c0.09,0.01,0.17,0.03,0.26,0.04c0.13,0.02,0.26,0.04,0.39,0.05c0.08,0.01,0.16,0.02,0.24,0.03
				c0.14,0.02,0.29,0.03,0.44,0.04c0.07,0.01,0.14,0.01,0.21,0.02c0.22,0.02,0.43,0.04,0.65,0.05c0.22,0.01,0.44,0.02,0.65,0.03
				c0.07,0,0.14,0,0.22,0c0.15,0,0.3,0.01,0.45,0.01c0.08,0,0.17,0,0.25,0c0.14,0,0.28,0,0.42-0.01c0.09,0,0.18-0.01,0.27-0.01
				c0.14-0.01,0.27-0.01,0.41-0.02c0.09-0.01,0.18-0.01,0.27-0.02c0.14-0.01,0.28-0.02,0.42-0.04c0.09-0.01,0.18-0.02,0.26-0.03
				c0.15-0.02,0.31-0.04,0.46-0.06c0.07-0.01,0.15-0.02,0.22-0.03c0.23-0.03,0.46-0.07,0.68-0.11c0.23-0.04,0.46-0.09,0.68-0.14
				c0.07-0.02,0.15-0.03,0.22-0.05c0.15-0.04,0.31-0.07,0.46-0.11c0.09-0.02,0.18-0.05,0.26-0.07c0.14-0.04,0.28-0.08,0.43-0.12
				c0.09-0.03,0.18-0.06,0.28-0.08c0.14-0.04,0.28-0.09,0.42-0.14c0.09-0.03,0.18-0.06,0.28-0.1c0.14-0.05,0.28-0.1,0.42-0.16
				c0.09-0.03,0.18-0.07,0.27-0.1c0.15-0.06,0.31-0.13,0.46-0.19c0.08-0.03,0.15-0.06,0.23-0.1c0.23-0.1,0.46-0.21,0.68-0.32
				c0.23-0.11,0.45-0.23,0.68-0.35c0.07-0.04,0.15-0.08,0.22-0.13c0.15-0.09,0.3-0.17,0.46-0.26c0.09-0.05,0.17-0.11,0.26-0.16
				c0.14-0.09,0.28-0.17,0.42-0.26c0.09-0.06,0.18-0.12,0.27-0.18c0.14-0.09,0.27-0.19,0.41-0.28c0.09-0.06,0.18-0.13,0.27-0.19
				c0.14-0.1,0.27-0.2,0.41-0.31c0.09-0.07,0.17-0.13,0.26-0.2c0.15-0.12,0.3-0.24,0.44-0.37c0.07-0.06,0.14-0.12,0.21-0.18
				c0.44-0.38,0.87-0.78,1.29-1.21c0.07-0.07,0.14-0.14,0.21-0.22c0.14-0.15,0.28-0.3,0.43-0.45c0.08-0.09,0.16-0.18,0.24-0.27
				c0.13-0.14,0.26-0.29,0.39-0.44c0.08-0.1,0.17-0.2,0.25-0.3c0.12-0.15,0.25-0.3,0.37-0.46c0.08-0.1,0.17-0.21,0.25-0.32
				c0.12-0.16,0.25-0.33,0.37-0.49c0.06-0.08,0.12-0.16,0.18-0.24c-0.98-3.82-1.43-8.25-0.69-12.75c1.11-6.71,4.79-12.3,10.65-16.17
				c0.08-0.05,0.15-0.1,0.23-0.15c4-22.64,1.18-42.85-0.33-47.54c-0.08-0.25-0.17-0.48-0.27-0.7c-0.02-0.05-0.05-0.11-0.07-0.16
				c-0.1-0.21-0.2-0.41-0.31-0.59c-0.11-0.18-0.23-0.35-0.35-0.5c-0.03-0.04-0.06-0.08-0.09-0.11c-0.13-0.15-0.25-0.29-0.39-0.41
				c-0.14-0.12-0.28-0.23-0.43-0.32c-0.04-0.02-0.07-0.05-0.11-0.07c-0.15-0.09-0.3-0.17-0.46-0.24c0,0,0,0,0,0
				c-0.16-0.07-0.32-0.12-0.49-0.17c-0.04-0.01-0.08-0.02-0.12-0.03c-0.17-0.04-0.34-0.08-0.51-0.1c-2.62-0.35-5.97,1.4-8.61,2.77
				c-4.92,2.57-7.49,9.2-8.99,15.41c-1.5,6.21-7.02,16.31-22.05,30.4c-13.7,12.84-3.85,31.04,1.07,35.54
				c0.45,0.41,1.2,0.95,2.2,1.54l0,0C214.84,140,214.84,140,214.85,140z M215.63,105.92c5.35-13.91,21.62-6.21,21.62-6.21
				s5.57,6.42,1.07,16.48c-4.5,10.06-13.27,9.42-15.2,8.99C223.12,125.18,210.27,119.83,215.63,105.92z"/>
			<path class="st2" d="M251.84,54.47c0.17,0.05,0.33,0.1,0.49,0.17c0,0,0,0,0,0c0.16,0.07,0.31,0.15,0.46,0.24
				c0.04,0.02,0.07,0.05,0.11,0.07c0.15,0.1,0.29,0.2,0.43,0.32c0.14,0.12,0.26,0.26,0.39,0.41c0.03,0.04,0.06,0.07,0.09,0.11
				c0.12,0.15,0.24,0.32,0.35,0.5c0.11,0.18,0.21,0.38,0.31,0.59c0.02,0.05,0.05,0.11,0.07,0.16c0.09,0.22,0.18,0.45,0.27,0.7
				c1.51,4.7,4.33,24.91,0.33,47.54c4.9-3.24,9.19-6.44,12.85-9.57c-0.3-5.71-0.87-11.8-1.62-18.28
				c-3-25.69-15.16-23.11-15.16-23.11c0,0,0,0,0,0c0.17,0.02,0.34,0.06,0.51,0.1C251.76,54.45,251.8,54.46,251.84,54.47z"/>
			<path class="st3" d="M223.12,125.18c1.93,0.43,10.7,1.07,15.2-8.99c4.5-10.06-1.07-16.48-1.07-16.48s-16.27-7.71-21.62,6.21
				C210.27,119.83,223.12,125.18,223.12,125.18z"/>
			<path class="st2" d="M244.94,134.37c-0.06,0.08-0.12,0.16-0.18,0.24c-0.12,0.17-0.25,0.33-0.37,0.49
				c-0.08,0.11-0.16,0.21-0.25,0.32c-0.12,0.16-0.25,0.31-0.37,0.46c-0.08,0.1-0.17,0.2-0.25,0.3c-0.13,0.15-0.26,0.3-0.39,0.44
				c-0.08,0.09-0.16,0.18-0.24,0.27c-0.14,0.15-0.28,0.3-0.43,0.45c-0.07,0.07-0.14,0.15-0.21,0.22c-0.43,0.43-0.86,0.83-1.29,1.21
				c-0.07,0.06-0.14,0.12-0.21,0.18c-0.15,0.12-0.29,0.25-0.44,0.37c-0.09,0.07-0.17,0.13-0.26,0.2c-0.14,0.11-0.27,0.21-0.41,0.31
				c-0.09,0.07-0.18,0.13-0.27,0.19c-0.13,0.1-0.27,0.19-0.41,0.28c-0.09,0.06-0.18,0.12-0.27,0.18c-0.14,0.09-0.28,0.18-0.42,0.26
				c-0.09,0.05-0.17,0.11-0.26,0.16c-0.15,0.09-0.3,0.18-0.46,0.26c-0.07,0.04-0.15,0.08-0.22,0.13c-0.23,0.12-0.45,0.24-0.68,0.35
				c-0.23,0.11-0.46,0.22-0.68,0.32c-0.08,0.03-0.15,0.06-0.23,0.1c-0.15,0.07-0.31,0.13-0.46,0.19c-0.09,0.04-0.18,0.07-0.27,0.1
				c-0.14,0.05-0.28,0.11-0.42,0.16c-0.09,0.03-0.18,0.06-0.28,0.1c-0.14,0.05-0.28,0.09-0.42,0.14c-0.09,0.03-0.18,0.06-0.28,0.08
				c-0.14,0.04-0.28,0.08-0.43,0.12c-0.09,0.02-0.18,0.05-0.26,0.07c-0.15,0.04-0.31,0.08-0.46,0.11c-0.07,0.02-0.15,0.04-0.22,0.05
				c-0.23,0.05-0.46,0.1-0.68,0.14c-0.23,0.04-0.46,0.08-0.68,0.11c-0.07,0.01-0.15,0.02-0.22,0.03c-0.15,0.02-0.31,0.04-0.46,0.06
				c-0.09,0.01-0.18,0.02-0.26,0.03c-0.14,0.01-0.28,0.03-0.42,0.04c-0.09,0.01-0.18,0.01-0.27,0.02c-0.14,0.01-0.27,0.02-0.41,0.02
				c-0.09,0-0.18,0.01-0.27,0.01c-0.14,0-0.28,0.01-0.42,0.01c-0.08,0-0.17,0-0.25,0c-0.15,0-0.3,0-0.45-0.01c-0.07,0-0.14,0-0.22,0
				c-0.22-0.01-0.44-0.02-0.65-0.03c-0.22-0.01-0.43-0.03-0.65-0.05c-0.07-0.01-0.14-0.01-0.21-0.02c-0.15-0.01-0.29-0.03-0.44-0.04
				c-0.08-0.01-0.16-0.02-0.24-0.03c-0.13-0.02-0.26-0.03-0.39-0.05c-0.09-0.01-0.17-0.02-0.26-0.04c-0.13-0.02-0.25-0.04-0.37-0.06
				c-0.08-0.01-0.17-0.03-0.25-0.04c-0.13-0.02-0.25-0.05-0.38-0.07c-0.08-0.02-0.16-0.03-0.24-0.05c-0.14-0.03-0.27-0.06-0.4-0.09
				c-0.07-0.01-0.13-0.03-0.2-0.04c-0.2-0.04-0.39-0.09-0.59-0.14c-0.2-0.05-0.39-0.1-0.58-0.15c-0.07-0.02-0.13-0.04-0.19-0.05
				c-0.13-0.04-0.25-0.07-0.38-0.11c-0.07-0.02-0.15-0.04-0.22-0.07c-0.11-0.03-0.23-0.07-0.34-0.11c-0.07-0.02-0.15-0.05-0.22-0.07
				c-0.11-0.04-0.22-0.07-0.33-0.11c-0.07-0.02-0.14-0.05-0.22-0.07c-0.11-0.04-0.22-0.08-0.33-0.12c-0.07-0.02-0.13-0.05-0.2-0.07
				c-0.12-0.04-0.23-0.09-0.34-0.13c-0.06-0.02-0.11-0.04-0.17-0.07c-0.33-0.13-0.66-0.27-0.97-0.4c-0.05-0.02-0.1-0.05-0.15-0.07
				c-0.1-0.05-0.21-0.09-0.31-0.14c-0.06-0.03-0.12-0.05-0.17-0.08c-0.09-0.04-0.18-0.09-0.27-0.13c-0.06-0.03-0.12-0.06-0.18-0.09
				c-0.09-0.04-0.17-0.08-0.25-0.13c-0.06-0.03-0.11-0.06-0.17-0.08c-0.09-0.04-0.17-0.09-0.25-0.13c-0.05-0.03-0.1-0.05-0.15-0.08
				c-0.09-0.05-0.17-0.09-0.26-0.14c-0.04-0.02-0.09-0.05-0.13-0.07c-0.12-0.06-0.23-0.13-0.34-0.19c-0.01,0-0.01-0.01-0.02-0.01
				c0.01,0.01,6.16,4.03,14.28,5.31c5.02,0.79,13.46,1.99,20.94-0.28c-0.27-0.28-0.51-0.55-0.71-0.81
				C247.85,142.29,246.06,138.73,244.94,134.37z"/>
		</g>
	</g>
</g>
</svg>
